<?xml version="1.0" encoding="UTF-8" standalone="no"?>
<svg
   xmlns:dc="http://purl.org/dc/elements/1.1/"
   xmlns:cc="http://creativecommons.org/ns#"
   xmlns:rdf="http://www.w3.org/1999/02/22-rdf-syntax-ns#"
   xmlns:svg="http://www.w3.org/2000/svg"
   xmlns="http://www.w3.org/2000/svg"
   xmlns:sodipodi="http://sodipodi.sourceforge.net/DTD/sodipodi-0.dtd"
   xmlns:inkscape="http://www.inkscape.org/namespaces/inkscape"
   inkscape:version="1.0 (4035a4f, 2020-05-01)"
   sodipodi:docname="fused-sample.svg"
   viewBox="0 0 326.836 163.68668"
   height="163.68668"
   width="326.836"
   xml:space="preserve"
   id="svg833"
   version="1.1"><metadata
     id="metadata839"><rdf:RDF><cc:Work
         rdf:about=""><dc:format>image/svg+xml</dc:format><dc:type
           rdf:resource="http://purl.org/dc/dcmitype/StillImage" /><dc:title></dc:title></cc:Work></rdf:RDF></metadata><defs
     id="defs837"><clipPath
       id="clipPath1041"
       clipPathUnits="userSpaceOnUse"><path
         id="path1039"
         d="M 0,0 H 206.22395 V 96.90044 H 0 Z" /></clipPath></defs><sodipodi:namedview
     inkscape:current-layer="g841"
     inkscape:window-maximized="1"
     inkscape:window-y="908"
     inkscape:window-x="0"
     inkscape:cy="110.61208"
     inkscape:cx="150.84858"
     inkscape:zoom="1.6709572"
     showgrid="false"
     id="namedview835"
     inkscape:window-height="855"
     inkscape:window-width="1440"
     inkscape:pageshadow="2"
     inkscape:pageopacity="0"
     guidetolerance="10"
     gridtolerance="10"
     objecttolerance="10"
     borderopacity="1"
     bordercolor="#666666"
     pagecolor="#ffffff" /><g
     transform="matrix(1.3333333,0,0,-1.3333333,0,163.68667)"
     inkscape:label="main-figure2"
     inkscape:groupmode="layer"
     id="g841"><g
       transform="translate(31.351,25.667)"
       id="g847" /><g
       transform="translate(31.351,25.667)"
       id="g849"><g
         id="g851" /><g
         id="g853" /><g
         id="g855"><g
           id="g857" /></g><g
         id="g859" /><g
         id="g861" /><g
         id="g863" /><g
         id="g865" /><g
         transform="translate(-31.351,-25.667)"
         id="g867"><g
           transform="translate(31.351,25.667)"
           id="g869"><g
             id="g871"><g
               id="g873" /><g
               id="g875"><g
                 id="g877"><g
                   id="g879"><g
                     id="g881"><path
                       id="path883"
                       style="fill:none;stroke:#808080;stroke-width:0.19925;stroke-linecap:butt;stroke-linejoin:miter;stroke-miterlimit:10;stroke-dasharray:none;stroke-opacity:1"
                       d="M 0,0 V 4.2521 M 51.55598,0 V 4.2521 M 103.11197,0 V 4.2521 M 154.66795,0 V 4.2521 M 206.22395,0 v 4.2521" /></g></g><g
                   id="g885"><g
                     id="g887"><path
                       id="path889"
                       style="fill:none;stroke:#808080;stroke-width:0.19925;stroke-linecap:butt;stroke-linejoin:miter;stroke-miterlimit:10;stroke-dasharray:none;stroke-opacity:1"
                       d="M 0,0 H 4.25226 M 0,34.6073 H 4.25226 M 0,69.2146 h 4.25226" /></g></g><path
                   id="path891"
                   style="fill:none;stroke:#000000;stroke-width:0.3985;stroke-linecap:butt;stroke-linejoin:miter;stroke-miterlimit:10;stroke-dasharray:none;stroke-opacity:1"
                   d="M 0,0 V 96.90044 H 206.22395 V 0 Z" /><g
                   id="g893"><g
                     transform="translate(-2.117,-8.656)"
                     id="g895"><g
                       id="g897"><g
                         transform="translate(-29.234,-17.011)"
                         id="g899"><text
                           id="text903"
                           style="font-variant:normal;font-weight:normal;font-size:7.97010000000000041px;font-family:sans-serif;-inkscape-font-specification:sans-serif;writing-mode:lr-tb;fill:#000000;fill-opacity:1;fill-rule:nonzero;stroke:none;font-style:normal;font-stretch:normal;"
                           transform="matrix(1,0,0,-1,29.234,17.011)"><tspan
                             style="-inkscape-font-specification:sans-serif;font-family:sans-serif;font-weight:normal;font-style:normal;font-stretch:normal;font-variant:normal;"
                             id="tspan901"
                             y="0"
                             x="0">0</tspan></text><g
                           transform="translate(29.234,17.011)"
                           id="g905" /></g></g><g
                       transform="translate(2.117,8.656)"
                       id="g907" /></g></g><g
                   id="g909"><g
                     transform="translate(47.322,-8.656)"
                     id="g911"><g
                       id="g913"><g
                         transform="translate(-78.673,-17.011)"
                         id="g915"><text
                           id="text919"
                           style="font-variant:normal;font-weight:normal;font-size:7.97010000000000041px;font-family:sans-serif;-inkscape-font-specification:sans-serif;writing-mode:lr-tb;fill:#000000;fill-opacity:1;fill-rule:nonzero;stroke:none;font-style:normal;font-stretch:normal;"
                           transform="matrix(1,0,0,-1,78.673,17.011)"><tspan
                             id="tspan917"
                             sodipodi:role="line"
                             y="0"
                             x="0 4.2345142">10</tspan></text><g
                           transform="translate(78.673,17.011)"
                           id="g921" /></g></g><g
                       transform="translate(-47.322,8.656)"
                       id="g923" /></g></g><g
                   id="g925"><g
                     transform="translate(98.877,-8.656)"
                     id="g927"><g
                       id="g929"><g
                         transform="translate(-130.228,-17.011)"
                         id="g931"><text
                           id="text935"
                           style="font-variant:normal;font-weight:normal;font-size:7.97010000000000041px;font-family:sans-serif;-inkscape-font-specification:sans-serif;writing-mode:lr-tb;fill:#000000;fill-opacity:1;fill-rule:nonzero;stroke:none;font-style:normal;font-stretch:normal;"
                           transform="matrix(1,0,0,-1,130.228,17.011)"><tspan
                             id="tspan933"
                             sodipodi:role="line"
                             y="0"
                             x="0 4.2345142">20</tspan></text><g
                           transform="translate(130.228,17.011)"
                           id="g937" /></g></g><g
                       transform="translate(-98.877,8.656)"
                       id="g939" /></g></g><g
                   id="g941"><g
                     transform="translate(150.432,-8.656)"
                     id="g943"><g
                       id="g945"><g
                         transform="translate(-181.783,-17.011)"
                         id="g947"><text
                           id="text951"
                           style="font-variant:normal;font-weight:normal;font-size:7.97010000000000041px;font-family:sans-serif;-inkscape-font-specification:sans-serif;writing-mode:lr-tb;fill:#000000;fill-opacity:1;fill-rule:nonzero;stroke:none;font-style:normal;font-stretch:normal;"
                           transform="matrix(1,0,0,-1,181.783,17.011)"><tspan
                             id="tspan949"
                             sodipodi:role="line"
                             y="0"
                             x="0 4.2345142">30</tspan></text><g
                           transform="translate(181.783,17.011)"
                           id="g953" /></g></g><g
                       transform="translate(-150.432,8.656)"
                       id="g955" /></g></g><g
                   id="g957"><g
                     transform="translate(201.988,-8.656)"
                     id="g959"><g
                       id="g961"><g
                         transform="translate(-233.339,-17.011)"
                         id="g963"><text
                           id="text967"
                           style="font-variant:normal;font-weight:normal;font-size:7.97010000000000041px;font-family:sans-serif;-inkscape-font-specification:sans-serif;writing-mode:lr-tb;fill:#000000;fill-opacity:1;fill-rule:nonzero;stroke:none;font-style:normal;font-stretch:normal;"
                           transform="matrix(1,0,0,-1,233.339,17.011)"><tspan
                             id="tspan965"
                             sodipodi:role="line"
                             y="0"
                             x="0 4.2345142">40</tspan></text><g
                           transform="translate(233.339,17.011)"
                           id="g969" /></g></g><g
                       transform="translate(-201.988,8.656)"
                       id="g971" /></g></g><g
                   id="g973"><g
                     transform="translate(-14.34,-2.568)"
                     id="g975"><g
                       id="g977"><g
                         transform="translate(-17.011,-23.099)"
                         id="g979"><text
                           id="text983"
                           style="font-variant:normal;font-weight:normal;font-size:7.9701px;font-family:CMR8;-inkscape-font-specification:CMR8;writing-mode:lr-tb;fill:#000000;fill-opacity:1;fill-rule:nonzero;stroke:none"
                           transform="matrix(1,0,0,-1,17.011,23.099)"><tspan
                             style="font-style:normal;font-variant:normal;font-weight:normal;font-stretch:normal;font-family:sans-serif;-inkscape-font-specification:sans-serif"
                             id="tspan981"
                             y="0"
                             x="0">0</tspan></text><text
                           id="text987"
                           style="font-variant:normal;font-weight:normal;font-size:7.97010000000000041px;font-family:sans-serif;-inkscape-font-specification:sans-serif;writing-mode:lr-tb;fill:#000000;fill-opacity:1;fill-rule:nonzero;stroke:none;font-style:normal;font-stretch:normal;"
                           transform="matrix(1,0,0,-1,21.245,23.099)"><tspan
                             style="-inkscape-font-specification:sans-serif;font-family:sans-serif;font-weight:normal;font-style:normal;font-stretch:normal;font-variant:normal;"
                             id="tspan985"
                             y="0"
                             x="0">.</tspan></text><text
                           id="text991"
                           style="font-variant:normal;font-weight:normal;font-size:7.9701px;font-family:CMR8;-inkscape-font-specification:CMR8;writing-mode:lr-tb;fill:#000000;fill-opacity:1;fill-rule:nonzero;stroke:none"
                           transform="matrix(1,0,0,-1,23.597,23.099)"><tspan
                             id="tspan989"
                             y="0"
                             x="0">5</tspan></text><g
                           transform="translate(17.011,23.099)"
                           id="g993" /></g></g><g
                       transform="translate(14.34,2.568)"
                       id="g995" /></g></g><g
                   id="g997"><g
                     transform="translate(-7.754,32.039)"
                     id="g999"><g
                       id="g1001"><g
                         transform="translate(-23.597,-57.706)"
                         id="g1003"><text
                           id="text1007"
                           style="font-variant:normal;font-weight:normal;font-size:7.97010000000000041px;font-family:sans-serif;-inkscape-font-specification:sans-serif;writing-mode:lr-tb;fill:#000000;fill-opacity:1;fill-rule:nonzero;stroke:none;font-style:normal;font-stretch:normal;"
                           transform="matrix(1,0,0,-1,23.597,57.706)"><tspan
                             style="-inkscape-font-specification:sans-serif;font-family:sans-serif;font-weight:normal;font-style:normal;font-stretch:normal;font-variant:normal;"
                             id="tspan1005"
                             y="0"
                             x="0">1</tspan></text><g
                           transform="translate(23.597,57.706)"
                           id="g1009" /></g></g><g
                       transform="translate(7.754,-32.039)"
                       id="g1011" /></g></g><g
                   id="g1013"><g
                     transform="translate(-14.34,66.646)"
                     id="g1015"><g
                       id="g1017"><g
                         transform="translate(-17.011,-92.313)"
                         id="g1019"><text
                           id="text1023"
                           style="font-variant:normal;font-weight:normal;font-size:7.9701px;font-family:CMR8;-inkscape-font-specification:CMR8;writing-mode:lr-tb;fill:#000000;fill-opacity:1;fill-rule:nonzero;stroke:none"
                           transform="matrix(1,0,0,-1,17.011,92.313)"><tspan
                             id="tspan1021"
                             y="0"
                             x="0">1</tspan></text><text
                           id="text1027"
                           style="font-variant:normal;font-weight:normal;font-size:7.9701px;font-family:CMMI8;-inkscape-font-specification:CMMI8;writing-mode:lr-tb;fill:#000000;fill-opacity:1;fill-rule:nonzero;stroke:none"
                           transform="matrix(1,0,0,-1,21.245,92.313)"><tspan
                             id="tspan1025"
                             y="0"
                             x="0">.</tspan></text><text
                           id="text1031"
                           style="font-variant:normal;font-weight:normal;font-size:7.97010000000000041px;font-family:sans-serif;-inkscape-font-specification:sans-serif;writing-mode:lr-tb;fill:#000000;fill-opacity:1;fill-rule:nonzero;stroke:none;font-style:normal;font-stretch:normal;"
                           transform="matrix(1,0,0,-1,23.597,92.313)"><tspan
                             style="-inkscape-font-specification:sans-serif;font-family:sans-serif;font-weight:normal;font-style:normal;font-stretch:normal;font-variant:normal;"
                             id="tspan1029"
                             y="0"
                             x="0">5</tspan></text><g
                           transform="translate(17.011,92.313)"
                           id="g1033" /></g></g><g
                       transform="translate(14.34,-66.646)"
                       id="g1035" /></g></g><g
                   clip-path="url(#clipPath1041)"
                   id="g1037"><g
                     id="g1043"><path
                       id="path1045"
                       style="fill:none;stroke:#00c1de;stroke-width:0.3985;stroke-linecap:butt;stroke-linejoin:miter;stroke-miterlimit:10;stroke-dasharray:none;stroke-opacity:1"
                       d="m 0,88.69392 0.51555,-0.41574 0.51556,0.26515 0.51557,0.22907 0.51555,-0.61723 0.51556,0.57058 0.51556,-0.07847 0.51557,-0.33304 0.51555,0.3606 0.51556,-0.14423 0.51557,-0.38393 0.51556,0.54938 0.51554,-0.52605 0.51557,-0.06787 0.51556,0.47299 0.51555,-0.50693 0.51557,0.33301 0.51556,0.19091 0.51557,-0.50907 0.51554,0.34574 0.51557,0.1909 0.51556,-0.55149 0.51557,0.60029 0.51554,-0.1082 0.51557,-0.54723 0.51556,0.5833 0.51557,-0.23544 0.51554,-0.2206 0.51557,0.40089 0.51556,-0.32028 0.51555,-0.30545 0.51557,0.54726 0.51556,-0.5515 0.51556,0.2715 0.51555,0.32664 0.51557,-0.65328 0.51556,0.4815 0.51556,0.02332 0.51555,-0.41362 0.51557,0.49421 0.51556,0.04668 0.51556,-0.48149 0.51555,0.47511 0.51557,-0.14211 0.51556,-0.33514 0.51555,0.47301 0.51556,-0.41361 0.51557,-0.01696 0.51556,0.33088 0.51555,-0.5536 0.51556,0.34999 0.51557,0.22058 0.51556,-0.52603 0.51555,0.47937 0.51557,-0.01273 0.51556,-0.42846 0.51556,0.62573 0.51555,-0.21423 0.51557,-0.26302 0.51556,0.46028 0.51555,-0.23968 0.51556,-0.20999 0.51556,0.43058 0.51557,-0.39665 0.51555,-0.06999 0.51556,0.35635 0.51557,-0.64271 0.51556,0.57057 0.51555,-0.16118 0.51556,-0.21211 0.51557,0.43905 0.51556,-0.19937 0.51555,0.0064 0.51556,0.50482 0.51557,-0.72542 0.51555,0.38393 0.51556,0.08486 0.51556,-0.42211 0.51557,0.39026 0.51555,-0.10181 0.51556,-0.263 0.51557,0.29909 0.51556,-0.1697 0.51555,0.23968 0.51556,-0.05515 0.51557,-0.25453 0.51556,0.30968 0.51555,-0.25029 0.51556,-0.36482 0.51557,0.59178 0.51555,-0.29061 0.51556,0.08274 0.51556,0.2821 0.51557,-0.52815 0.51555,0.38605 0.51556,0.09332 0.51556,-0.29695 0.51557,0.30967 0.51555,0.15061 0.51556,-0.52603 0.51556,0.23332 0.51557,0.08272 0.51555,-0.3118 0.51556,0.29695 0.51557,-0.10819 0.51554,-0.31602 0.51557,0.39452 0.51556,-0.24393 0.51557,0.02971 0.51554,0.25239 0.51557,-0.32453 0.51556,0.3224 0.51556,0.11244 0.51556,-0.48363 0.51556,0.38393 0.51556,0.06363 0.51557,-0.36907 0.51555,0.37543 0.51556,-0.01485 0.51556,-0.3733 0.51555,0.45814 0.51557,-0.39239 0.51556,-0.17817 0.51556,0.4836 0.51555,-0.49846 0.51557,0.29909 0.51556,0.16756 0.51556,-0.38393 0.51555,0.35636 0.51557,0.11665 0.51556,-0.45392 0.51557,0.55998 0.51555,-0.16545 0.51556,-0.44755 0.51556,0.51542 0.51555,-0.13151 0.51556,-0.35208 0.51557,0.50058 0.51556,-0.39876 0.51555,-0.20577 0.51557,0.55997 0.51556,-0.67662 0.51556,0.29695 0.51555,0.38393 0.51557,-0.54938 0.51556,0.47089 0.51556,-0.01485 0.51556,-0.38179 0.51556,0.53026 0.51556,-0.19937 0.51555,-0.3118 0.51556,0.53663 0.51557,-0.41362 0.51556,0.03182 0.51555,0.26515 0.51556,-0.31181 0.51557,0.07423 0.51556,0.09757 0.51555,-0.46451 0.51556,0.34785 0.51557,0.13575 0.51556,-0.35846 0.51555,0.51968 0.51556,-0.27151 0.51557,-0.16968 0.51555,0.60237 0.51556,-0.61934 0.51557,0.43907 0.51556,-0.02547 0.51555,-0.34785 0.51556,0.38603 0.51557,-0.1209 0.51556,-0.48148 0.51555,0.67451 0.51556,-0.65967 0.51557,0.37755 0.51556,0.15271 0.51555,-0.40724 0.51556,0.56212 0.51557,-0.12941 0.51555,-0.26726 0.51556,0.39876 0.51557,-0.41573 0.51556,0.11666 0.51554,0.13999 0.51557,-0.56845 0.51556,0.48148 0.51557,-0.13997 0.51555,-0.08697 0.51556,0.44967 0.51557,-0.45605 0.51556,0.31819 0.51555,0.2227 0.51556,-0.68511 0.51557,0.5748 0.51554,-0.10392 0.51557,-0.32666 0.51556,0.41362 0.51557,-0.27361 0.51554,-0.24606 0.51557,0.46453 0.51556,-0.61088 0.51557,0.41786 0.51555,0.08696 0.51556,-0.2418 0.51556,0.48573 0.51557,-0.24605 0.51555,-0.17605 0.51556,0.40937 0.51556,-0.34997 0.51555,0.07635 0.51557,0.11666 0.51556,-0.40088 0.51556,0.35634 0.51555,-0.25666 0.51557,-0.07635 0.51556,0.30119 0.51557,-0.2715 0.51554,0.11666 0.51557,0.18454 0.51556,-0.37119 0.51557,0.37755 0.51554,0.31392 0.51557,-0.51541 0.51556,0.33299 0.51555,-0.08273 0.51557,-0.31177 0.51556,0.25664 0.51556,-0.29483 0.51555,-0.09759 0.51557,0.53242 0.51556,-0.56211 0.51557,0.3627 0.51554,0.03395 0.51556,-0.30543 0.51557,0.38179 0.51556,0.12726 0.51555,-0.60662 0.51557,0.5833 0.51556,-0.07213 0.51555,-0.32452 0.51556,0.38393 0.51557,-0.48362 0.51556,0.06788 0.51555,0.31391 0.51556,-0.54089 0.51557,0.29274 0.51556,0.4539 0.51555,-0.71269 0.51556,0.48361 0.51557,-0.35846 0.51556,0.11666 0.51555,0.31392 0.51557,-0.49208 0.51556,0.333 0.51555,0.15908 0.51556,-0.45816 0.51557,0.57906 0.51556,-0.05727 0.51555,-0.45391 0.51556,0.45604 0.51557,-0.07636 0.51556,-0.38604 0.51555,0.48572 0.51556,-0.54935 0.51557,0.12727 0.51556,0.333 0.51555,-0.61724 0.51556,0.49634 0.51557,-0.0085 0.51555,-0.12515 0.51556,0.40725 0.51556,-0.25877 0.51557,-0.1209 0.51555,0.40937 0.51556,-0.46877 0.51557,0.19515 0.51556,0.11666 0.51555,-0.34362 0.51556,0.25029 0.51557,-0.2015 0.51556,-0.2715 0.51555,0.51329 0.51556,-0.25877 0.51556,-0.0509 0.51556,0.34573 0.51556,-0.48572 0.51556,0.45179 0.51557,0.25665 0.51555,-0.60663 0.51556,0.40513 0.51556,-0.02757 0.51557,-0.34575 0.51555,0.37543 0.51556,-0.3118 0.51556,-0.29695 0.51557,0.61299 0.51555,-0.53451 0.51556,0.25241 0.51556,0.14 0.51555,-0.40725 0.51557,0.47935 0.51556,0.09758 0.51557,-0.48998 0.51555,0.57271 0.51556,-0.22696" /><g
                       id="g1047"><g
                         transform="translate(157.244,88.368)"
                         id="g1049"><g
                           id="g1051" /><g
                           transform="translate(-157.244,-88.368)"
                           id="g1053" /></g></g></g><g
                     id="g1055"><path
                       id="path1057"
                       style="fill:none;stroke:#ff6b00;stroke-width:0.3985;stroke-linecap:butt;stroke-linejoin:miter;stroke-miterlimit:10;stroke-dasharray:none;stroke-opacity:1"
                       d="m 0,77.23633 0.51555,-0.60729 0.51556,-6.77321 0.51557,8.59511 0.51555,-6.10159 0.51556,0.03572 0.51556,-4.53691 0.51557,5.24423 0.51555,3.9439 0.51556,-4.10108 0.51557,-5.37999 0.51556,5.11565 0.51554,4.22967 0.51557,-2.76501 0.51556,-6.26593 0.51555,3.49377 0.51557,11.91742 0.51556,-17.18309 0.51557,3.47234 0.51554,7.8592 0.51557,-0.56444 0.51556,-9.60252 0.51557,1.9791 0.51554,7.27334 0.51557,0.15004 0.51556,-8.15214 0.51557,-0.7502 0.51554,8.97378 0.51557,-0.40724 0.51556,-7.05185 0.51555,9.29529 0.51557,-5.70863 0.51556,-0.75734 0.51556,-4.81557 0.51555,6.29453 0.51557,2.75071 0.51556,-2.98649 0.51556,-5.33713 0.51555,4.14397 0.51557,4.85125 0.51556,-3.48663 0.51556,-6.19447 0.51555,3.14368 0.51557,13.42497 0.51556,-17.52605 0.51555,3.72954 0.51556,6.466 0.51557,-0.18577 0.51556,-9.48821 0.51555,1.55042 0.51556,8.78802 0.51557,-1.04312 0.51556,-7.97354 0.51555,0.04288 0.51557,7.91636 0.51556,0.27864 0.51556,-7.37336 0.51555,9.45962 0.51557,-5.80865 0.51556,-0.22864 0.51555,-5.05133 0.51556,5.50144 0.51556,4.33686 0.51557,-4.47975 0.51555,-5.02275 0.51556,4.92273 0.51557,4.02961 0.51556,-2.75785 0.51555,-6.35881 0.51556,3.65811 0.51557,12.63188 0.51556,-17.68321 0.51555,3.65095 0.51556,7.26619 0.51557,-1.05743 0.51555,-9.08095 0.51556,2.06482 0.51556,8.02354 0.51557,-0.45726 0.51555,-8.4022 0.51556,-0.2858 0.51557,8.63085 0.51556,0.16433 0.51555,-7.90924 0.51556,9.48821 0.51557,-5.5443 0.51556,-1.4718 0.51555,-3.83675 0.51556,6.12305 0.51557,3.68667 0.51555,-4.88699 0.51556,-4.86557 0.51556,5.26569 0.51557,3.37945 0.51555,-2.37205 0.51556,-5.50861 0.51556,3.26517 0.51557,11.17436 0.51555,-16.71869 0.51556,4.46546 0.51556,5.92298 0.51557,0.443 0.51555,-9.53824 0.51556,2.25058 0.51557,7.56628 0.51554,-0.77877 0.51557,-8.51651 0.51556,0.69302 0.51557,8.79518 0.51554,-0.51442 0.51557,-7.8735 0.51556,9.31674 0.51556,-5.55147 0.51556,-1.17174 0.51556,-4.25827 0.51556,6.84467 0.51557,3.14368 0.51555,-4.73696 0.51556,-5.42999 0.51556,5.76581 0.51555,4.20109 0.51557,-3.57951 0.51556,-5.55859 0.51556,4.16537 0.51555,10.68137 0.51557,-16.60436 0.51556,3.70812 0.51556,7.00182 0.51555,-0.3215 0.51557,-9.2953 0.51556,2.45064 0.51557,7.77348 0.51555,-0.85736 0.51556,-8.638 0.51556,0.46442 0.51555,8.30218 0.51556,-0.11432 0.51557,-7.9235 0.51556,9.66682 0.51555,-5.39429 0.51557,-1.62184 0.51556,-3.96533 0.51556,6.04445 0.51555,3.60094 0.51557,-4.65836 0.51556,-4.77269 0.51556,5.13706 0.51556,3.64382 0.51556,-2.57925 0.51556,-5.55145 0.51555,3.34373 0.51556,11.0529 0.51557,-16.63293 0.51556,4.22252 0.51555,6.63032 0.51556,-0.0072 0.51557,-9.60252 0.51556,2.46494 0.51555,7.01614 0.51556,-0.52157 0.51557,-8.38077 0.51556,0.50014 0.51555,9.12381 0.51556,-0.92881 0.51557,-8.02354 0.51555,10.16696 0.51556,-6.05159 0.51557,-1.29319 0.51556,-4.0082 0.51555,6.55885 0.51556,3.40804 0.51557,-5.04416 0.51556,-4.74411 0.51555,5.77295 0.51556,3.62951 0.51557,-3.62951 0.51556,-5.04419 0.51555,4.12251 0.51556,9.62396 0.51557,-15.72555 0.51555,3.851 0.51556,7.07328 0.51557,-0.92166 0.51556,-9.73114 0.51554,3.75814 0.51557,6.3731 0.51556,-0.30008 0.51557,-8.71658 0.51555,1.52184 0.51556,8.35218 0.51557,-0.65731 0.51556,-8.62369 0.51555,10.23125 0.51556,-5.5443 0.51557,-1.88622 0.51554,-3.40803 0.51557,6.92323 0.51556,2.54353 0.51557,-4.89413 0.51554,-4.54405 0.51557,5.42999 0.51556,2.95792 0.51557,-3.14368 0.51555,-4.77983 0.51556,3.94389 0.51556,10.83856 0.51557,-16.74011 0.51555,4.65123 0.51556,5.13706 0.51556,0.50013 0.51555,-9.6811 0.51557,3.04364 0.51556,7.68774 0.51556,-1.40751 0.51555,-8.33077 0.51557,1.15031 0.51556,8.28075 0.51557,-0.86452 0.51554,-8.25216 0.51557,10.58848 0.51556,-5.63719 0.51557,-2.36489 0.51554,-3.30802 0.51557,6.83751 0.51556,2.42207 0.51555,-4.47975 0.51557,-4.94415 0.51556,5.42285 0.51556,4.60121 0.51555,-4.42975 0.51557,-4.75125 0.51556,4.47261 0.51557,9.7883 0.51554,-16.29715 0.51556,4.43686 0.51557,6.61604 0.51556,-0.80021 0.51555,-9.25243 0.51557,3.07222 0.51556,6.57318 0.51555,-0.42155 0.51556,-8.60941 0.51557,1.69332 0.51556,8.03066 0.51555,-0.52154 0.51556,-8.72374 0.51557,10.14552 0.51556,-5.07275 0.51555,-2.0934 0.51556,-3.70097 0.51557,7.68771 0.51556,1.61473 0.51555,-4.90131 0.51557,-4.00819 0.51556,5.82297 0.51555,3.28657 0.51556,-4.36543 0.51557,-5.37283 0.51556,4.79411 0.51555,10.3956 0.51556,-15.40407 0.51557,4.39401 0.51556,5.02275 0.51555,0.32152 0.51556,-10.62422 0.51557,3.48662 0.51556,7.6806 0.51555,-0.85023 0.51556,-9.03807 0.51557,2.4149 0.51555,6.35168 0.51556,0.3358 0.51556,-8.35934 0.51557,11.6745 0.51555,-6.97327 0.51556,-1.57184 0.51557,-3.77957 0.51556,6.96611 0.51555,2.65785 0.51556,-5.70149 0.51557,-4.02249 0.51556,6.75891 0.51555,3.04367 0.51556,-4.37257 0.51556,-5.32285 0.51556,5.02275 0.51556,9.78115 0.51556,-15.6541 0.51557,4.70838 0.51555,5.79437 0.51556,-0.49299 0.51556,-10.1741 0.51557,3.67954 0.51555,7.10902 0.51556,-0.18578 0.51556,-10.45988 0.51557,2.5721 0.51555,7.58772 0.51556,-0.49301 0.51556,-8.25931 0.51555,11.33156 0.51557,-5.98015 0.51556,-2.85075 0.51557,-3.00078 0.51555,7.13043 0.51556,1.61471" /><g
                       id="g1059"><g
                         transform="translate(157.244,76.192)"
                         id="g1061"><g
                           id="g1063" /><g
                           transform="translate(-157.244,-76.192)"
                           id="g1065" /></g></g></g><g
                     id="g1067"><path
                       id="path1069"
                       style="fill:none;stroke:#002b49;stroke-width:0.3985;stroke-linecap:butt;stroke-linejoin:miter;stroke-miterlimit:10;stroke-dasharray:none;stroke-opacity:1"
                       d="M 0,48.12668 0.51555,63.34566 1.03111,62.97757 1.54668,43.72964 2.06223,59.04231 2.57779,66.30379 3.09335,53.33353 3.60892,58.63406 4.12447,61.29103 4.64003,49.18411 5.1556,63.0445 5.67116,63.92122 6.1867,42.36433 l 0.51557,18.82631 0.51556,2.38259 0.51555,-8.50632 0.51557,3.61401 0.51556,-3.78801 0.51557,1.13105 0.51554,7.86381 0.51557,-9.78459 0.51556,-3.84155 0.51557,12.69586 0.51554,-0.46848 0.51557,-8.56654 0.51556,6.45168 0.51557,-12.59549 0.51554,16.08903 0.51557,-0.45511 0.51556,-17.78894 0.51555,11.4912 0.51557,9.01496 0.51556,-9.95191 0.51556,0.81649 0.51555,3.52702 0.51557,-10.95582 0.51556,13.88046 0.51556,0.06693 0.51555,-20.64668 0.51557,16.1091 0.51556,7.10756 0.51556,-12.42818 0.51555,5.22023 0.51557,2.19518 0.51556,-11.28374 0.51555,13.59938 0.51556,-4.01557 0.51557,-12.61555 0.51556,14.16154 0.51555,2.43612 0.51556,-9.7846 0.51557,7.28824 0.51556,-11.98643 0.51555,12.06674 0.51557,2.43613 0.51556,-13.63954 0.51556,4.42382 0.51555,11.02271 0.51557,-4.49074 0.51556,-6.63237 0.51555,6.32452 0.51556,-12.07347 0.51556,15.4666 0.51557,-0.56885 0.51555,-18.98692 0.51556,14.26193 0.51557,8.34567 0.51556,-13.27143 0.51555,5.22693 0.51556,3.0853 0.51557,-12.5821 0.51556,13.88046 0.51555,0.66257 0.51556,-20.80061 0.51557,17.08621 0.51555,4.55097 0.51556,-10.01212 0.51556,4.33679 0.51557,-3.54707 0.51555,0.29448 0.51556,8.01772 0.51557,-8.25866 0.51556,-6.49182 0.51555,13.62614 0.51556,0.15392 0.51557,-8.64015 0.51556,6.42491 0.51555,-13.39192 0.51556,17.17324 0.51557,-1.17122 0.51555,-16.95906 0.51556,10.44046 0.51556,9.76452 0.51557,-9.12871 0.51555,-0.87673 0.51556,4.55767 0.51556,-11.57152 0.51557,14.27531 0.51555,0.39487 0.51556,-20.56638 0.51556,15.45992 0.51557,7.81697 0.51555,-13.46552 0.51556,5.96981 0.51557,2.20185 0.51554,-11.0361 0.51557,13.42536 0.51556,-2.73726 0.51557,-15.80124 0.51554,15.69415 0.51557,2.52312 0.51556,-9.85822 0.51556,6.63907 0.51556,-8.37913 0.51556,7.99766 0.51556,3.98879 0.51557,-12.77619 0.51555,1.23143 0.51556,12.44828 0.51556,-4.53092 0.51555,-5.74225 0.51557,5.94305 0.51556,-12.03333 0.51556,15.74101 0.51555,-0.95035 0.51557,-18.84637 0.51556,13.61276 0.51556,8.1382 0.51555,-12.37462 0.51557,5.67534 0.51556,1.26489 0.51557,-11.39082 0.51555,13.96079 0.51556,0.50193 0.51556,-20.88762 0.51555,16.87206 0.51556,4.3435 0.51557,-9.55034 0.51556,3.98209 0.51555,-1.39206 0.51557,-3.73446 0.51556,10.34677 0.51556,-6.59223 0.51555,-8.50628 0.51557,13.66629 0.51556,-0.39489 0.51556,-7.72325 0.51556,6.44498 0.51556,-13.73323 0.51556,16.99252 0.51555,-0.88341 0.51556,-16.67127 0.51557,10.63453 0.51556,8.48624 0.51555,-6.532 0.51556,-4.41042 0.51557,6.00995 0.51556,-11.20341 0.51555,14.05447 0.51556,-0.39486 0.51557,-19.59597 0.51556,15.5871 0.51555,7.6965 0.51556,-13.28483 0.51557,4.92575 0.51555,3.29277 0.51556,-12.46832 0.51557,14.39579 0.51556,-0.74287 0.51555,-18.90663 0.51556,16.87207 0.51557,1.89399 0.51556,-8.35905 0.51555,4.91907 0.51556,-5.30724 0.51557,3.24591 0.51556,6.793 0.51555,-12.36794 0.51556,0.41494 0.51557,12.01323 0.51555,-2.50972 0.51556,-8.21184 0.51557,7.19456 0.51556,-12.3077 0.51554,15.52015 0.51557,-0.67595 0.51556,-17.71534 0.51557,12.7762 0.51555,8.29884 0.51556,-12.06679 0.51557,4.5376 0.51556,0.78972 0.51555,-10.35346 0.51556,13.88716 0.51557,0.39486 0.51554,-20.47269 0.51557,16.2162 0.51556,7.054 0.51557,-12.12701 0.51554,3.96204 0.51557,1.13104 0.51556,-8.03112 0.51557,12.95018 0.51555,-6.92015 0.51556,-9.05508 0.51556,13.17772 0.51557,1.41214 0.51555,-8.3189 0.51556,6.28437 0.51556,-13.55254 0.51555,15.85478 0.51557,0.13386 0.51556,-15.48669 0.51556,7.92403 0.51555,9.94521 0.51557,-5.5147 0.51556,-6.23082 0.51557,6.31113 0.51554,-11.67859 0.51557,14.84419 0.51556,-0.49525 0.51557,-19.60263 0.51554,15.87485 0.51557,7.14772 0.51556,-13.01714 0.51555,5.68202 0.51557,2.37587 0.51556,-12.0333 0.51556,13.94741 0.51555,0.34801 0.51557,-20.88764 0.51556,18.50507 0.51557,2.12825 0.51554,-8.774 0.51556,4.57773 0.51557,-4.70488 0.51556,1.96762 0.51555,7.62286 0.51557,-10.92233 0.51556,-2.33571 0.51555,12.6691 0.51556,-1.35192 0.51557,-8.69369 0.51556,7.58943 0.51555,-12.79626 0.51556,15.98193 0.51557,-1.41882 0.51556,-17.07285 0.51555,12.03329 0.51556,8.80748 0.51557,-10.83532 0.51556,2.03454 0.51555,2.71721 0.51557,-11.20343 0.51556,13.59268 0.51555,0.93697 0.51556,-20.47937 0.51557,16.00201 0.51556,7.01386 0.51555,-12.24747 0.51556,4.33011 0.51557,1.40544 0.51556,-9.05508 0.51555,13.19781 0.51556,-5.16668 0.51557,-11.35066 0.51556,13.51907 0.51555,2.16839 0.51556,-9.12872 0.51557,7.72996 0.51555,-13.97415 0.51556,14.86428 0.51556,0.47517 0.51557,-14.09462 0.51555,6.03003 0.51556,10.19952 0.51557,-5.0596 0.51556,-6.17727 0.51555,7.30163 0.51556,-12.99704 0.51557,15.92841 0.51556,-1.22476 0.51555,-18.75937 0.51556,14.38241 0.51556,8.28545 0.51556,-13.8604 0.51556,6.47176 0.51556,2.35579 0.51557,-12.32778 0.51555,14.22849 0.51556,-0.07361 0.51556,-21.08171 0.51557,18.03656 0.51555,3.06521 0.51556,-8.82086 0.51556,4.14943 0.51557,-3.76126 0.51555,1.01061 0.51556,8.06457 0.51556,-10.07905 0.51555,-4.37029" /><g
                       id="g1071"><g
                         transform="translate(154.666,49.953)"
                         id="g1073"><g
                           id="g1075" /><g
                           transform="translate(-154.666,-49.953)"
                           id="g1077" /></g></g></g><g
                     id="g1079"><path
                       id="path1081"
                       style="fill:none;stroke:#95d600;stroke-width:0.3985;stroke-linecap:butt;stroke-linejoin:miter;stroke-miterlimit:10;stroke-dasharray:none;stroke-opacity:1"
                       d="m 0,31.90411 0.51555,-0.42224 0.51556,0.40552 0.51557,0.21812 0.51555,-0.13516 0.51556,-0.09302 0.51556,0.0221 0.51557,-0.03481 0.51555,0.0308 0.51556,0.05151 0.51557,-0.47575 0.51556,0.46705 0.51554,-0.01003 0.51557,0.02207 0.51556,-0.008 0.51555,-0.09704 0.51557,0.14924 0.51556,-0.03949 0.51557,-0.20409 0.51554,-0.22015 0.51557,0.33726 0.51556,0.21881 0.51557,0.02341 0.51554,-0.12378 0.51557,-0.19138 0.51556,0.29175 0.51557,-0.25361 0.51554,0.20141 0.51557,-0.11844 0.51556,0.02811 0.51555,0.006 0.51557,-0.64439 0.51556,0.6571 0.51556,-0.05017 0.51555,0.11309 0.51557,0.0582 0.51556,-0.34794 0.51556,0.22682 0.51555,-0.12913 0.51557,0.02209 0.51556,0.10704 0.51556,-0.58749 0.51555,0.60356 0.51557,0.0154 0.51556,0.008 0.51555,-0.13182 0.51556,0.06491 0.51557,0.05754 0.51556,-0.30043 0.51555,0.14452 0.51556,0.05687 0.51557,-0.41954 0.51556,0.45233 0.51555,-0.01872 0.51557,0.05821 0.51556,-0.13182 0.51556,0.09904 0.51555,-0.0067 0.51557,0.02142 0.51556,-0.03479 0.51555,-0.40483 0.51556,0.43962 h 0.51556 l 0.51557,0.15724 0.51555,-0.16326 0.51556,-0.004 0.51557,0.0074 0.51556,0.05486 0.51555,-0.15993 0.51556,0.05222 0.51557,0.10704 0.51556,-0.45969 0.51555,0.36 0.51556,-0.0395 0.51557,0.0676 0.51555,0.05688 0.51556,-0.0502 0.51556,0.03012 0.51557,-0.03414 0.51555,0.02811 0.51556,-0.10504 0.51557,0.13516 0.51556,-0.20074 0.51555,-0.34328 0.51556,0.35933 0.51557,0.15457 0.51556,0.20277 0.51555,-0.20544 0.51556,0.15123 0.51557,-0.23621 0.51555,-0.01806 0.51556,0.0542 0.51556,0.11776 0.51557,-0.07762 0.51555,0.05286 0.51556,-0.70729 0.51556,0.76417 0.51557,0.04817 0.51555,-0.25828 0.51556,0.12848 0.51556,-0.04951 0.51557,0.03346 0.51555,-0.0047 0.51556,-0.0013 0.51557,-0.58551 0.51554,0.48581 0.51557,0.12579 0.51556,0.03079 0.51557,-0.22483 0.51554,0.25428 0.51557,-0.28842 0.51556,0.18334 0.51556,0.12515 0.51556,-0.56612 0.51556,0.43965 0.51556,0.1713 0.51557,-0.1064 0.51555,-0.09703 0.51556,0.02342 0.51556,0.12178 0.51555,-0.06623 0.51557,0.02073 0.51556,-0.02609 0.51556,-0.12848 0.51555,-0.0013 0.51557,-0.29776 0.51556,0.37539 0.51556,0.11309 0.51555,-0.03747 0.51557,-0.01806 0.51556,-0.01206 0.51557,-0.06958 0.51555,-0.06023 0.51556,-0.02543 0.51556,-0.10573 0.51555,-0.02207 0.51556,0.37137 0.51557,-0.05017 0.51556,-0.17332 0.51555,0.11108 0.51557,0.05687 0.51556,-0.16594 0.51556,0.03212 0.51555,-0.06291 0.51557,0.10774 0.51556,-0.52194 0.51556,0.48446 0.51556,0.006 0.51556,0.12512 0.51556,-0.15524 0.51555,0.06893 0.51556,-0.08565 0.51557,0.0368 0.51556,0.14453 0.51555,-0.60824 0.51556,0.4443 0.51557,0.27503 0.51556,-0.18669 0.51555,0.13182 0.51556,-0.29776 0.51557,0.22348 0.51556,-0.07227 0.51555,-0.01071 0.51556,0.07361 0.51557,-0.24893 0.51555,-0.23755 0.51556,0.30917 0.51557,0.07695 0.51556,0.01003 0.51555,0.0281 0.51556,0.0047 0.51557,0.02877 0.51556,-0.10504 0.51555,-0.12983 0.51556,0.10372 0.51557,0.08566 0.51556,-0.06291 0.51555,-0.43495 0.51556,0.54938 0.51557,-0.04015 0.51555,0.16125 0.51556,-0.14921 0.51557,-0.07694 0.51556,0.14988 0.51554,-0.12781 0.51557,0.02678 0.51556,-0.05086 0.51557,0.02945 0.51555,-0.12648 0.51556,-0.19339 0.51557,0.26498 0.51556,0.01204 0.51555,0.01204 0.51556,0.20076 0.51557,-0.14921 0.51554,0.02609 0.51557,-0.02008 0.51556,0.03012 0.51557,0.04082 0.51554,-0.8371 0.51557,0.81569 0.51556,-0.06625 0.51557,-0.0034 0.51555,0.01674 0.51556,-0.0174 0.51556,0.10237 0.51557,-0.08966 0.51555,-0.07426 0.51556,-0.23087 0.51556,0.21279 0.51555,0.23021 0.51557,0.09232 0.51556,-0.13986 0.51556,-0.23219 0.51555,0.37473 0.51557,-0.29644 0.51556,0.09435 0.51557,-0.0067 0.51554,0.0368 0.51557,-0.06623 0.51556,-0.41957 0.51557,0.50923 0.51554,-0.0087 0.51557,-0.02744 0.51556,0.1191 0.51555,-0.27167 0.51557,0.1064 0.51556,-0.03815 0.51556,-0.01138 0.51555,0.10438 0.51557,-0.56875 0.51556,0.67382 0.51557,-0.089 0.51554,-0.06357 0.51556,-0.04216 0.51557,-0.0067 0.51556,0.08832 0.51555,-0.19136 0.51557,0.09635 0.51556,0.04885 0.51555,-0.5012 0.51556,0.55874 0.51557,-0.05019 0.51556,-0.0542 0.51555,0.06625 0.51556,0.04484 0.51557,-0.10306 0.51556,0.12447 0.51555,-0.09636 0.51556,-0.46038 0.51557,0.41555 0.51556,0.10972 0.51555,0.10842 0.51557,-0.16327 0.51556,0.04081 0.51555,0.0074 0.51556,-0.06224 0.51557,-0.03812 0.51556,0.0495 0.51555,0.04886 0.51556,-0.46507 0.51557,0.40551 0.51556,-0.07562 0.51555,0.04485 0.51556,0.13716 0.51557,-0.0562 0.51556,-0.10103 0.51555,0.0863 0.51556,0.03748 0.51557,-0.1111 0.51555,0.03081 0.51556,-0.12581 0.51556,-0.28572 0.51557,0.31249 0.51555,0.14051 0.51556,0.21682 0.51557,-0.27236 0.51556,0.08966 0.51555,-0.09701 0.51556,0.0455 0.51557,-0.01471 0.51556,0.11441 0.51555,-0.091 0.51556,0.05018 0.51556,-0.54201 0.51556,0.39882 0.51556,0.0261 0.51556,-0.02677 0.51557,0.19138 0.51555,-0.11777 0.51556,0.07628 0.51556,-0.08765 0.51557,0.12981 0.51555,-0.14454 0.51556,-0.45437 0.51556,0.51525 0.51557,0.06692 0.51555,-0.06824 0.51556,0.03412 0.51556,-0.07092 0.51555,-0.08632 0.51557,0.17396 0.51556,-0.09034 0.51557,-0.76885 0.51555,0.68387 0.51556,0.17532" /><g
                       id="g1083"><g
                         transform="translate(157.244,31.984)"
                         id="g1085"><g
                           id="g1087" /><g
                           transform="translate(-157.244,-31.984)"
                           id="g1089" /></g></g></g><g
                     id="g1091"><path
                       id="path1093"
                       style="fill:none;stroke:#0091bd;stroke-width:0.3985;stroke-linecap:butt;stroke-linejoin:miter;stroke-miterlimit:10;stroke-dasharray:none;stroke-opacity:1"
                       d="m 0,18.86475 0.51555,-0.16208 0.51556,0.19156 0.51557,-0.11296 0.51555,-0.04912 0.51556,-0.25543 0.51556,1.87147 0.51557,-1.29187 0.51555,-0.0835 0.51556,-0.07859 0.51557,-0.05893 0.51556,0.2063 0.51554,-0.46174 0.51557,0.23577 0.51556,0.09334 0.51555,0.20138 0.51557,-0.47154 0.51556,0.23578 0.51557,-0.09332 0.51554,0.21612 0.51557,-0.53541 0.51556,0.47155 0.51557,1.6799 0.51554,-1.2673 0.51557,-0.44699 0.51556,0.34386 0.51557,-0.27018 0.51554,0.1621 0.51557,-0.31929 0.51556,0.2456 0.51555,0.0049 0.51557,0.17193 0.51556,-0.33894 0.51556,0.14246 0.51555,-0.09333 0.51557,0.08841 0.51556,-0.26033 0.51556,1.87148 0.51555,-1.28203 0.51557,-0.14737 0.51556,-0.14737 0.51556,0.0049 0.51555,0.06877 0.51557,-0.14735 h 0.51556 l 0.51555,0.11296 0.51556,0.1621 0.51557,-0.35857 0.51556,0.19647 0.51555,-0.17682 0.51556,0.20139 0.51557,-0.39786 0.51556,0.27506 0.51555,1.8862 0.51557,-1.25255 0.51556,-0.47155 0.51556,0.17682 0.51555,-0.29472 0.51557,0.31438 0.51556,-0.4912 0.51555,0.35858 0.51556,-0.02948 0.51556,0.25544 0.51557,-0.53542 0.51555,0.29962 0.51556,-0.18664 0.51557,0.09332 0.51556,-0.34874 0.51555,2.00409 0.51556,-1.39009 0.51557,-0.05895 0.51556,-0.2456 0.51555,0.11297 0.51556,-0.06386 0.51557,-0.08842 0.51555,-0.04912 0.51556,0.08351 0.51556,0.13262 0.51557,-0.10807 0.51555,0.01474 0.51556,-0.16209 0.51557,0.18176 0.51556,-0.3242 0.51555,0.13261 0.51556,1.84202 0.51557,-1.23293 0.51556,-0.40277 0.51555,0.24069 0.51556,-0.28489 0.51557,0.31927 0.51555,-0.56488 0.51556,0.27998 0.51556,-0.03437 0.51557,0.37328 0.51555,-0.55012 0.51556,0.30944 0.51556,-0.27505 0.51557,0.24068 0.51555,-0.52068 0.51556,1.9992 0.51556,-1.40484 0.51557,0.06876 0.51555,-0.27016 0.51556,0.2014 0.51557,-0.14244 h 0.51554 l 0.51557,-0.16702 0.51556,0.11298 0.51557,0.05894 0.51554,-0.04422 0.51557,-0.02455 0.51556,-0.10805 0.51556,0.13751 0.51556,-0.25543 0.51556,0.05405 0.51556,1.85675 0.51557,-1.22803 0.51555,-0.34382 0.51556,0.06877 0.51556,-0.09333 0.51555,0.22596 0.51557,-0.51578 0.51556,0.29472 0.51556,-0.06386 0.51555,0.34386 0.51557,-0.54032 0.51556,0.31435 0.51556,-0.23576 0.51555,0.21121 0.51557,-0.47154 0.51556,1.92058 0.51557,-1.43431 0.51555,0.19159 0.51556,-0.38315 0.51556,0.26034 0.51555,-0.19648 0.51556,0.13261 0.51557,-0.40768 0.51556,0.28488 0.51555,0.08352 0.51557,-0.02948 0.51556,-0.2014 0.51556,0.07369 0.51555,0.0098 0.51557,-0.11298 0.51556,-0.16209 0.51556,2.07775 0.51556,-1.3999 0.51556,-0.27016 0.51556,0.0098 0.51555,0.01473 0.51556,0.10806 0.51557,-0.35365 0.51556,0.15225 0.51555,0.05404 0.51556,0.16208 0.51557,-0.39786 0.51556,0.23578 0.51555,-0.24068 0.51556,0.31435 0.51557,-0.56488 0.51556,1.80273 0.51555,-0.96767 0.51556,-0.0098 0.51557,-0.5354 0.51555,0.25052 0.51556,-0.2014 0.51557,0.22595 0.51556,-0.34875 0.51555,0.26527 h 0.51556 l 0.51557,0.14734 0.51556,-0.41751 0.51555,0.27017 0.51556,-0.13264 0.51557,-0.0049 0.51556,-0.19156 0.51555,1.92059 0.51556,-1.26239 0.51557,-0.13263 0.51555,-0.13753 0.51556,0.0344 h 0.51557 l 0.51556,-0.22106 0.51554,0.03929 0.51557,0.09825 0.51556,0.2407 0.51557,-0.29964 0.51555,0.07368 0.51556,-0.18174 0.51557,0.19157 0.51556,-0.4077 0.51555,0.25051 0.51556,1.79287 0.51557,-1.17888 0.51554,-0.63365 0.51557,0.29964 0.51556,-0.27507 0.51557,0.29962 0.51554,-0.54031 0.51557,0.28981 0.51556,0.05894 0.51557,0.14736 0.51555,-0.40769 0.51556,0.31438 0.51556,-0.16702 0.51557,-0.01474 0.51555,-0.21613 0.51556,2.05814 0.51556,-1.47852 0.51555,-0.02457 0.51557,-0.15716 0.51556,0.06875 0.51556,-0.05894 0.51555,-0.13263 0.51557,0.0049 0.51556,0.04423 0.51557,0.17681 0.51554,-0.20138 0.51557,-0.01966 0.51556,-0.06877 0.51557,0.21123 0.51554,-0.4077 0.51557,0.21613 0.51556,1.9255 0.51555,-1.37536 0.51557,-0.55506 0.51556,0.27507 0.51556,-0.18175 0.51555,0.25054 0.51557,-0.5649 0.51556,0.37332 0.51557,-0.05896 0.51554,0.18175 0.51556,-0.42242 0.51557,0.40277 0.51556,-0.36348 0.51555,0.18175 0.51557,-0.30945 0.51556,2.02374 0.51555,-1.48344 0.51556,0.08352 0.51557,-0.27017 0.51556,0.11789 0.51555,-0.0786 0.51556,0.04912 0.51557,-0.30944 0.51556,0.2898 0.51555,0.09333 0.51556,-0.09824 0.51557,-0.13754 0.51556,-0.02947 0.51555,0.16701 0.51557,-0.37822 0.51556,0.13753 0.51555,1.92059 0.51556,-1.46377 0.51557,-0.29962 0.51556,0.16207 0.51555,-0.20138 0.51556,0.22104 0.51557,-0.46173 0.51556,0.25051 0.51555,-0.01965 0.51556,0.34386 0.51557,-0.50595 0.51556,0.2456 0.51555,-0.28982 0.51556,0.26035 0.51557,-0.45683 0.51555,2.08762 0.51556,-1.43922 0.51556,0.16209 0.51557,-0.38805 0.51555,0.12281 0.51556,-0.07369 0.51557,0.0835 0.51556,-0.33402 0.51555,0.27509 0.51556,0.13261 0.51557,-0.15227 0.51556,-0.05403 0.51555,-0.01965 0.51556,0.07861 0.51556,-0.25544 0.51556,0.03439 0.51556,1.98935 0.51556,-1.58165 0.51557,-0.20632 0.51555,0.1179 0.51556,-0.15227 0.51556,0.20138 0.51557,-0.43226 0.51555,0.19157 0.51556,-0.05893 0.51556,0.42243 0.51557,-0.50102 0.51555,0.26032 0.51556,-0.28489 0.51556,0.29965 0.51555,-0.49613 0.51557,1.87148 0.51556,-1.28204 0.51557,0.21122 0.51555,-0.50593 0.51556,0.36839" /><g
                       id="g1095"><g
                         transform="translate(157.244,19.361)"
                         id="g1097"><g
                           id="g1099" /><g
                           transform="translate(-157.244,-19.361)"
                           id="g1101" /></g></g></g><g
                     id="g1103"><g
                       id="g1105" /><g
                       transform="translate(160.764,86.039)"
                       id="g1107"><g
                         id="g1109"><g
                           transform="translate(-192.115,-111.706)"
                           id="g1111"><text
                             id="text1115"
                             style="font-variant:normal;font-size:6.9738px;font-family:NimbusRomNo9L;-inkscape-font-specification:NimbusRomNo9L-Regu;writing-mode:lr-tb;fill:#000000;fill-opacity:1;fill-rule:nonzero;stroke:none"
                             transform="matrix(1,0,0,-1,192.115,111.706)"><tspan
                               style="font-style:normal;font-variant:normal;font-weight:normal;font-stretch:normal;font-family:sans-serif;-inkscape-font-specification:sans-serif"
                               y="0"
                               x="0"
                               id="tspan1113"
                               sodipodi:role="line">kF-raw</tspan></text><g
                             transform="translate(192.115,111.706)"
                             id="g1117" /></g></g><g
                         transform="translate(-160.764,-86.039)"
                         id="g1119" /></g></g><g
                     id="g1121"><g
                       id="g1123" /><g
                       transform="translate(160.764,73.903)"
                       id="g1125"><g
                         id="g1127"><g
                           transform="translate(-192.115,-99.57)"
                           id="g1129"><text
                             id="text1133"
                             style="font-variant:normal;font-size:6.9738px;font-family:NimbusRomNo9L;-inkscape-font-specification:NimbusRomNo9L-Regu;writing-mode:lr-tb;fill:#000000;fill-opacity:1;fill-rule:nonzero;stroke:none"
                             transform="matrix(1,0,0,-1,192.115,99.57)"><tspan
                               y="0"
                               x="0"
                               style="font-style:normal;font-variant:normal;font-weight:normal;font-stretch:normal;font-family:sans-serif;-inkscape-font-specification:sans-serif"
                               id="tspan1131"
                               sodipodi:role="line">aes-FFF</tspan></text><g
                             transform="translate(192.115,99.57)"
                             id="g1135" /></g></g><g
                         transform="translate(-160.764,-73.903)"
                         id="g1137" /></g></g><g
                     id="g1139"><g
                       id="g1141" /><g
                       transform="translate(158.186,48.33)"
                       id="g1143"><g
                         id="g1145"><g
                           transform="translate(-189.537,-73.997)"
                           id="g1147"><text
                             id="text1151"
                             style="font-variant:normal;font-size:6.9738px;font-family:NimbusRomNo9L;-inkscape-font-specification:NimbusRomNo9L-Regu;writing-mode:lr-tb;fill:#000000;fill-opacity:1;fill-rule:nonzero;stroke:none"
                             transform="matrix(1,0,0,-1,189.537,73.997)"><tspan
                               style="font-style:normal;font-variant:normal;font-weight:normal;font-stretch:normal;font-family:sans-serif;-inkscape-font-specification:sans-serif"
                               y="0"
                               x="0"
                               id="tspan1149"
                               sodipodi:role="line">fp-FFF</tspan></text><g
                             transform="translate(189.537,73.997)"
                             id="g1153" /></g></g><g
                         transform="translate(-158.186,-48.33)"
                         id="g1155" /></g></g><g
                     id="g1157"><g
                       id="g1159" /><g
                       transform="translate(160.764,30.361)"
                       id="g1161"><g
                         id="g1163"><g
                           transform="translate(-192.115,-56.028)"
                           id="g1165"><text
                             id="text1169"
                             style="font-variant:normal;font-size:6.9738px;font-family:NimbusRomNo9L;-inkscape-font-specification:NimbusRomNo9L-Regu;writing-mode:lr-tb;fill:#000000;fill-opacity:1;fill-rule:nonzero;stroke:none"
                             transform="matrix(1,0,0,-1,192.115,56.028)"><tspan
                               style="font-style:normal;font-variant:normal;font-weight:normal;font-stretch:normal;font-family:sans-serif;-inkscape-font-specification:sans-serif"
                               y="0"
                               x="0"
                               id="tspan1167"
                               sodipodi:role="line">dijkstra-FSS</tspan></text><g
                             transform="translate(192.115,56.028)"
                             id="g1171" /></g></g><g
                         transform="translate(-160.764,-30.361)"
                         id="g1173" /></g></g><g
                     id="g1175"><g
                       id="g1177" /><g
                       transform="translate(160.764,17.738)"
                       id="g1179"><g
                         id="g1181"><g
                           transform="translate(-192.115,-43.405)"
                           id="g1183"><text
                             id="text1187"
                             style="font-variant:normal;font-size:6.9738px;font-family:NimbusRomNo9L;-inkscape-font-specification:NimbusRomNo9L-Regu;writing-mode:lr-tb;fill:#000000;fill-opacity:1;fill-rule:nonzero;stroke:none"
                             transform="matrix(1,0,0,-1,192.115,43.405)"><tspan
                               style="font-style:normal;font-variant:normal;font-weight:normal;font-stretch:normal;font-family:sans-serif;-inkscape-font-specification:sans-serif"
                               y="0"
                               x="0"
                               id="tspan1185"
                               sodipodi:role="line">memcpy-FSS</tspan></text><g
                             transform="translate(192.115,43.405)"
                             id="g1189" /></g></g><g
                         transform="translate(-160.764,-17.738)"
                         id="g1191" /></g></g></g></g><g
                 id="g1193"><g
                   transform="translate(86.139,-20.932)"
                   id="g1195"><g
                     id="g1197"><g
                       transform="translate(-117.49,-4.735)"
                       id="g1199"><text
                         id="text1203"
                         style="font-variant:normal;font-size:7.9701px;font-family:NimbusRomNo9L;-inkscape-font-specification:NimbusRomNo9L-Regu;writing-mode:lr-tb;fill:#000000;fill-opacity:1;fill-rule:nonzero;stroke:none"
                         transform="matrix(1,0,0,-1,117.49,4.735)"><tspan
                           y="0"
                           x="0"
                           style="font-style:normal;font-variant:normal;font-weight:normal;font-stretch:normal;font-family:sans-serif;-inkscape-font-specification:sans-serif"
                           id="tspan1201"
                           sodipodi:role="line">Time (ms)</tspan></text><g
                         transform="translate(117.49,4.735)"
                         id="g1205" /></g></g><g
                     transform="translate(-86.139,20.932)"
                     id="g1207" /></g></g><g
                 id="g1209"><g
                   transform="rotate(90,-24.422,1.827)"
                   id="g1211"><g
                     id="g1213"><g
                       transform="translate(-8.756,-51.916)"
                       id="g1215"><text
                         id="text1219"
                         style="font-variant:normal;font-size:7.97010000000000041px;font-family:sans-serif;-inkscape-font-specification:sans-serif;writing-mode:lr-tb;fill:#000000;fill-opacity:1;fill-rule:nonzero;stroke:none;font-weight:normal;font-style:normal;font-stretch:normal;"
                         transform="matrix(1,0,0,-1,8.756,51.916)"><tspan
                           y="0"
                           x="0"
                           id="tspan1217"
                           sodipodi:role="line">Current (mA)</tspan></text><g
                         transform="translate(8.756,51.916)"
                         id="g1221" /></g></g><g
                     transform="translate(22.595,-26.249)"
                     id="g1223" /></g></g></g></g><g
             transform="translate(-31.351,-25.667)"
             id="g1225" /></g><g
           transform="translate(31.351,25.667)"
           id="g1227" /></g><g
         id="g1229" /><g
         id="g1231" /></g></g></svg>
